<svg xmlns="http://www.w3.org/2000/svg" viewBox="0 0 426.88 343.23"><defs><style>.cls-1{isolation:isolate;}.cls-2{fill:#e1e5e8;}.cls-12,.cls-17,.cls-19,.cls-3{fill:#fff;}.cls-13,.cls-17,.cls-18,.cls-19,.cls-20,.cls-22,.cls-3,.cls-9{stroke:#175cc4;}.cls-13,.cls-17,.cls-18,.cls-23,.cls-3,.cls-4,.cls-5,.cls-6,.cls-7,.cls-9{stroke-miterlimit:10;}.cls-13,.cls-17,.cls-18,.cls-19,.cls-20,.cls-22,.cls-3,.cls-7,.cls-9{stroke-width:2px;}.cls-10,.cls-13,.cls-18,.cls-20,.cls-22,.cls-23,.cls-4,.cls-5,.cls-6,.cls-7,.cls-9{fill:none;}.cls-23,.cls-4,.cls-5,.cls-6,.cls-7{stroke:#e1e5e8;}.cls-17,.cls-18,.cls-19,.cls-20,.cls-22,.cls-23,.cls-4,.cls-6{stroke-linecap:round;}.cls-23,.cls-4,.cls-5,.cls-6{stroke-width:3px;}.cls-6{stroke-dasharray:7 10;}.cls-21,.cls-8{fill:#f5455c;}.cls-14,.cls-15,.cls-16,.cls-18,.cls-22,.cls-24,.cls-26,.cls-8,.cls-9{mix-blend-mode:multiply;}.cls-11{fill:#175cc4;}.cls-14{fill:#ffd21f;}.cls-15{fill:#9ea2a8;}.cls-19,.cls-20,.cls-22{stroke-linejoin:round;}.cls-23{stroke-dasharray:0 6;}.cls-24{fill:#1d74f5;}.cls-25,.cls-26{fill:#2de0a5;}</style></defs><title>Artboard 1</title><g class="cls-1"><g id="Layer_1" data-name="Layer 1"><path class="cls-2" d="M210.44,32.71A134.94,134.94,0,0,0,103.67,85.13h3.82A131.91,131.91,0,0,1,210.44,35.71c72.84,0,132.1,59.26,132.1,132.1s-59.26,132.1-132.1,132.1-132.1-59.26-132.1-132.1q0-1.53,0-3.06c-1-.75-1.82-1.92-2.92-2.49q-.11,2.76-.11,5.54c0,74.49,60.6,135.1,135.1,135.1s135.1-60.6,135.1-135.1S284.93,32.71,210.44,32.71Z"/><circle class="cls-3" cx="163.17" cy="277.19" r="53.89" transform="translate(-34.85 23.72) rotate(-7.51)"/><line class="cls-4" x1="50.16" y1="153.04" x2="39.79" y2="153.04"/><line class="cls-4" x1="44.98" y1="147.86" x2="44.98" y2="158.22"/><circle class="cls-5" cx="103.73" cy="57.7" r="4.64"/><line class="cls-4" x1="35.47" y1="57.7" x2="11.88" y2="57.7"/><line class="cls-6" x1="86.97" y1="57.7" x2="44.98" y2="57.7"/><circle class="cls-5" cx="385.19" cy="62.35" r="4.64"/><circle class="cls-7" cx="287.28" cy="148.28" r="4.64"/><circle class="cls-7" cx="173.56" cy="117.71" r="4.64"/><circle class="cls-7" cx="111.61" cy="228.44" r="4.64"/><line class="cls-6" x1="370.48" y1="62.35" x2="325.7" y2="62.35"/><line class="cls-4" x1="214.13" y1="19.55" x2="203.77" y2="19.55"/><line class="cls-4" x1="208.95" y1="14.37" x2="208.95" y2="24.73"/><line class="cls-6" x1="247.92" y1="19.55" x2="218.56" y2="19.55"/><line class="cls-4" x1="415.22" y1="152.57" x2="404.86" y2="152.57"/><line class="cls-4" x1="410.04" y1="147.39" x2="410.04" y2="157.75"/><line class="cls-4" x1="395.53" y1="152.57" x2="349.72" y2="152.57"/><circle class="cls-3" cx="334.39" cy="207.05" r="36.18" transform="translate(-24.21 45.51) rotate(-7.51)"/><circle class="cls-3" cx="222.52" cy="177.33" r="30.75" transform="translate(5.33 361.16) rotate(-78.79)"/><circle class="cls-3" cx="287.28" cy="241.26" r="10.93" transform="translate(-29.08 39.64) rotate(-7.51)"/><circle class="cls-8" cx="284.28" cy="243.24" r="10.93" transform="translate(-29.37 39.27) rotate(-7.51)"/><circle class="cls-8" cx="331.39" cy="210.05" r="35.88" transform="translate(-24.62 45.14) rotate(-7.51)"/><circle class="cls-3" cx="311.94" cy="257.37" r="6.65" transform="translate(-30.98 43.01) rotate(-7.51)"/><circle class="cls-9" cx="229.74" cy="188.98" r="7.94" transform="translate(-0.29 377.62) rotate(-78.79)"/><circle class="cls-9" cx="244.19" cy="179.99" r="4.9" transform="translate(20.18 384.55) rotate(-78.79)"/><circle class="cls-9" cx="218.74" cy="157.64" r="3.5" transform="translate(21.6 341.57) rotate(-78.79)"/><path class="cls-10" d="M201.57,63.28c1.43-5.6,11.43-7.79,25.29-7.5a49.61,49.61,0,0,1,4.76-7c-3.45-.21-6.79-.33-10-.33q-3.09,0-6,.14c-16.38.76-26.69,4.8-28.29,11.09s5.52,14.76,19.54,23.26a149.7,149.7,0,0,0,14.76,7.77,49.64,49.64,0,0,1-1.08-8.55C208,75.72,200.13,68.93,201.57,63.28Z"/><path class="cls-10" d="M225.84,57.71h-1.1c-12.51,0-20.26,2.25-21.23,6.07s5.2,9.93,17,16.15a50,50,0,0,1,5.34-22.21Z"/><path class="cls-10" d="M314.74,103.46c12.14-.06,20-2.27,20.92-6s-4.72-9.38-15.2-15.16a50,50,0,0,1-5.72,21.21Z"/><path class="cls-10" d="M337.6,97.91c-1.58,6.22-13.28,7.56-23.05,7.56h-.92a49.64,49.64,0,0,1-5.16,7.24c24.68,1.6,42.7-2.11,44.91-10.78s-11.6-20.32-33.69-30.66a49.59,49.59,0,0,1,.81,8.73C329.2,84.67,339.21,91.57,337.6,97.91Z"/><path class="cls-11" d="M206.86,82.92c-14-8.5-21.14-17-19.54-23.26s11.91-10.32,28.29-11.09q2.92-.14,6-.14c3.21,0,6.55.11,10,.33q.79-1,1.62-1.9a153.06,153.06,0,0,0-17.72-.29c-17.57.82-28.27,5.29-30.13,12.59s5.4,16.34,20.45,25.46a154.6,154.6,0,0,0,16.4,8.53q-.33-1.22-.6-2.47A149.7,149.7,0,0,1,206.86,82.92Z"/><path class="cls-11" d="M319.15,68.69q.3,1.28.54,2.58c22.09,10.33,35.87,22.07,33.69,30.66s-20.23,12.38-44.91,10.78q-.88,1-1.81,2c4.37.33,8.55.5,12.48.5,20.22,0,34-4.35,36.18-12.78C357.85,92.45,343.31,79.69,319.15,68.69Z"/><path class="cls-11" d="M264.08,105.42a249.58,249.58,0,0,1-42.45-14.73q.27,1.24.6,2.47a254,254,0,0,0,41.36,14.2,255.47,255.47,0,0,0,43.07,7.34q.93-1,1.81-2A248.15,248.15,0,0,1,264.08,105.42Z"/><path class="cls-11" d="M320.46,82.25c10.48,5.78,16.16,11.42,15.2,15.16s-8.78,6-20.92,6q-.53,1-1.11,2h.92c9.77,0,21.47-1.34,23.05-7.56S329.2,84.67,320.51,80C320.51,80.75,320.49,81.5,320.46,82.25Z"/><path class="cls-11" d="M201.57,63.28c-1.44,5.65,6.46,12.43,19,18.85,0-.73,0-1.47,0-2.21-11.79-6.22-18-12.18-17-16.15s8.72-6.07,21.23-6.07h1.1c.33-.65.66-1.3,1-1.93C213,55.49,203,57.68,201.57,63.28Z"/><path class="cls-11" d="M314,103.47c-13.39-.07-30.58-2.61-48.41-7.15-18.87-4.8-34.3-10.71-45.08-16.39,0,.74,0,1.48,0,2.21,12,6.15,28.19,12,44.54,16.12,17.83,4.54,35,7.09,48.54,7.2q.58-1,1.11-2Z"/><path class="cls-12" d="M270.53,131.18a51,51,0,0,1-49.27-37.77l-.55-2,1.93.87a254.16,254.16,0,0,0,41.19,14.15,256.15,256.15,0,0,0,42.9,7.31l2.11.16-1.46,1.53a51.26,51.26,0,0,1-36.85,15.79Z"/><path class="cls-11" d="M222.23,93.15a254,254,0,0,0,41.36,14.2,255.47,255.47,0,0,0,43.07,7.34,50,50,0,0,1-84.43-21.55m-3-3.57,1.1,4.09a52,52,0,0,0,87.81,22.41L311,113l-4.22-.32a255.19,255.19,0,0,1-42.73-7.29,253.16,253.16,0,0,1-41-14.09l-3.86-1.74Z"/><path class="cls-12" d="M314,104.47c-13.47-.07-30.75-2.62-48.66-7.18C247.81,92.83,231.72,87,220,80.81l-.54-.28v-.61A51,51,0,0,1,225,57.26c.33-.67.68-1.32,1-2a50.81,50.81,0,0,1,4.85-7.16q.8-1,1.65-1.94a51,51,0,0,1,87.64,22.27c.2.85.39,1.74.55,2.63a51,51,0,0,1,.83,8.9c0,.77,0,1.53-.05,2.3a51.07,51.07,0,0,1-5.83,21.63l-.28.53H314Z"/><path class="cls-11" d="M270.48,30.18a50,50,0,0,1,48.68,38.52q.3,1.28.54,2.58a49.59,49.59,0,0,1,.81,8.73c0,.75,0,1.5,0,2.26a50,50,0,0,1-5.72,21.21H314c-13.39-.07-30.58-2.61-48.41-7.15-18.87-4.8-34.3-10.71-45.08-16.39a50,50,0,0,1,5.34-22.21c.33-.65.66-1.3,1-1.93a49.6,49.6,0,0,1,4.76-7q.79-1,1.62-1.9a50.1,50.1,0,0,1,37.24-16.69m0-2a52.08,52.08,0,0,0-38.73,17.35c-.57.64-1.13,1.3-1.68,2a51.78,51.78,0,0,0-4.95,7.31c-.34.61-.69,1.27-1.06,2a52,52,0,0,0-5.55,23.1v1.21l1.07.57c11.75,6.2,27.91,12.08,45.52,16.56,18,4.58,35.35,7.14,48.89,7.21h2l.56-1.06a52,52,0,0,0,5.94-22.05c0-.86.05-1.63.05-2.35a51.77,51.77,0,0,0-.85-9.08c-.17-.91-.35-1.81-.56-2.68a52,52,0,0,0-50.62-40.05Z"/><rect class="cls-13" x="91.06" y="197.11" width="21" height="9.79" rx="4.89" ry="4.89" transform="translate(96.23 -24.03) rotate(25.34)"/><rect class="cls-13" x="47.18" y="176.33" width="21" height="9.79" rx="4.89" ry="4.89" transform="translate(83.11 -7.25) rotate(25.34)"/><rect class="cls-14" x="88.28" y="198.71" width="21" height="9.79" rx="4.89" ry="4.89" transform="translate(96.65 -22.69) rotate(25.34)"/><rect class="cls-14" x="44.4" y="177.93" width="21" height="9.79" rx="4.89" ry="4.89" transform="translate(83.53 -5.9) rotate(25.34)"/><line class="cls-13" x1="67.17" y1="185.71" x2="72.99" y2="188.47"/><line class="cls-13" x1="86.08" y1="194.67" x2="91.9" y2="197.43"/><path class="cls-13" d="M229,147.52c-.38-.07-.75-.13-1.13-.19a8.28,8.28,0,0,0-.77,2.16,7.66,7.66,0,0,0,5.88,9.2,7.81,7.81,0,0,0,8.71-5.18A28.09,28.09,0,0,0,229,147.52Z"/><path class="cls-15" d="M228.58,151c-.38-.07-.75-.13-1.13-.19a8.28,8.28,0,0,0-.77,2.16,7.66,7.66,0,0,0,5.88,9.2,7.81,7.81,0,0,0,8.71-5.18A28.09,28.09,0,0,0,228.58,151Z"/><circle class="cls-9" cx="106.62" cy="129.79" r="44.09" transform="translate(-16.06 15.06) rotate(-7.51)"/><path class="cls-14" d="M217.34,95a50,50,0,0,0,84.43,21.55,255.47,255.47,0,0,1-43.07-7.34A254,254,0,0,1,217.34,95Z"/><path class="cls-14" d="M278,33.55a50,50,0,0,0-49.6,15.13q-.83.93-1.62,1.9a49.61,49.61,0,0,0-4.76,7c-.35.63-.69,1.28-1,1.93a50.14,50.14,0,0,0-3.79,10.13,33.54,33.54,0,0,0-1.48,9.83,207.67,207.67,0,0,0,45,17c17.83,4.54,35,8.73,48.39,8.8h.75a50,50,0,0,0,5.72-21.21c0-.75.05-1.51,0-2.26a49.59,49.59,0,0,0-.81-8.73q-.24-1.3-.54-2.58A50,50,0,0,0,278,33.55Z"/><circle class="cls-8" cx="309.68" cy="258.94" r="6.65" transform="translate(-31.2 42.72) rotate(-7.51)"/><circle class="cls-8" cx="340.53" cy="234.16" r="5.53" transform="translate(-27.7 46.55) rotate(-7.51)"/><circle class="cls-15" cx="219.34" cy="179.31" r="30.75" transform="translate(0.83 359.63) rotate(-78.79)"/><circle class="cls-15" cx="217.34" cy="159.67" r="3.75" transform="translate(18.48 341.84) rotate(-78.79)"/><circle class="cls-15" cx="243.02" cy="181.24" r="4.9" transform="translate(18.01 384.4) rotate(-78.79)"/><circle class="cls-15" cx="228.93" cy="191.62" r="8.29" transform="translate(-3.53 378.95) rotate(-78.79)"/><g class="cls-16"><line class="cls-17" x1="235.28" y1="69.97" x2="227.96" y2="77.29"/><line class="cls-17" x1="227.96" y1="69.97" x2="235.28" y2="77.29"/></g><circle class="cls-18" cx="342.41" cy="232.31" r="4.64"/><path class="cls-19" d="M146.28,56.68s-22.12-14.35-14.44-41.37c0,0,19.81,6.75,21.11,37.35C152.94,52.66,147.26,54.32,146.28,56.68Z"/><circle class="cls-20" cx="140.09" cy="36.2" r="3.22" transform="translate(77.2 166.51) rotate(-78.73)"/><path class="cls-21" d="M147.68,56.07s-2.57,5.86,7.8,13.28A15,15,0,0,0,152,53.52Z"/><path class="cls-19" d="M134.87,44a18.27,18.27,0,0,0,3.75,20.87s2.32-6.51,7.66-8.16C146.28,56.68,139.77,53.89,134.87,44Z"/><path class="cls-19" d="M150,36a18.27,18.27,0,0,1,13.14,16.65s-6.41-2.58-11.19.32C151.94,53,154.16,46.27,150,36Z"/><line class="cls-20" x1="130.68" y1="32.18" x2="135.91" y2="28.95"/><line class="cls-22" x1="152.19" y1="59.98" x2="144.66" y2="45.18"/><line class="cls-18" x1="302.42" y1="223.3" x2="321.45" y2="223.3"/><line class="cls-18" x1="300.73" y1="217.56" x2="311.94" y2="217.56"/><path class="cls-23" d="M126.06,175.93s33.16,10.7,19.29,45.2"/><path class="cls-23" d="M320.51,265.59s32,7.66,31-19.65"/><path class="cls-23" d="M256.67,167.81s29.27-12.17,41.53,16.57"/><path class="cls-23" d="M192.77,155.55S180.14,114,218.56,108.3"/><path class="cls-23" d="M301.78,126.48s30.75,11.51,23.48,41.33"/><path class="cls-23" d="M222.52,213.45s-3.28,37.26,48,34.22"/><path class="cls-23" d="M187.1,223.3s-7-17.92,5.68-21.29"/><path class="cls-23" d="M220.51,280s50.72,4.17,52.84-25.87"/><path class="cls-23" d="M185.16,170.86s-3.77-25.53-32.49-22.3"/><path class="cls-23" d="M150.71,108.3s18.59-31.22,59.73-16.13"/><path class="cls-20" d="M102.6,115.51c-3.87.71-7.27,2.26-9.68,5.53-5.41,7.32-2.08,15.64,6.91,17.29,3,.55,7.71-1.65,8.65,1.49,1.23,4.1,3.5,8.35,2.44,13-.6,2.63.75,4.89,2.13,6.86s3.1,4.26,6.2,1.49c3.91-3.48,8.22-6.4,8.31-12.5.07-5.41,4.48-8.8,7.19-13.64a16.08,16.08,0,0,1-8.44-10.53c3.88-.35,8.1,3.92,10.8-.76,1.3-2.25-1.53-3.57-2-5.5"/><path class="cls-20" d="M103.29,115.51c5.33,0,9.61,4.28,15.23,3.57,2-.25,3.61-.57,5-2.42-1-3.42-3.7-4.56-7.07-4.6-4.15,0-8.3-.16-12.44.05-2,.11-2.6,1.25-.69,2.7"/><path class="cls-20" d="M63.47,125.89c3.82.79,2.67,3.83,2.74,6.22.1,3.46-.11,6.47,4.08,8.5a7.26,7.26,0,0,1,3.49,10.14c-1.11,2.35-.26,4.65-.63,6.94"/><path class="cls-20" d="M120.57,88.54C119.38,90.75,118.13,93,120,95c-1.51,3.36-4.56.82-6.46,2.48-1,.89-3.92,1-3.9,1.45.27,7.47-8.61,7-10.56,12.41.74.9,1.47,1.74,2.78,1.43"/><path class="cls-20" d="M82.32,93.06c2.22,5.55-1,8.33-5.57,9.55a15,15,0,0,0-9.65,7"/><path class="cls-20" d="M111.61,173c-5.72-3-11.73-2.21-17.75-1.37"/><path class="cls-20" d="M93,94.36c5.24.22,8.39-3.15,11.46-6.67"/><path class="cls-20" d="M94.1,87.6c-.27,6.73-5.8,7.39-10.46,9"/><path class="cls-20" d="M148.26,116.93v8.83c-5.19-3.24-6.78-9.9-13-6.78"/><circle class="cls-24" cx="103.06" cy="128.72" r="44.09" transform="matrix(0.99, -0.13, 0.13, 0.99, -15.95, 14.58)"/><path class="cls-25" d="M71,102.06h0a8.77,8.77,0,0,1,2.93-1.78l3.17-1.15a4.12,4.12,0,0,0,1.29-.76l2.53-2.19a2.44,2.44,0,0,0,.79-1.35l.1-.47A1.77,1.77,0,0,1,83.28,93l1.39-.17a5.34,5.34,0,0,0,1.38-.36l3.24-1.33,1.08-.27a11.44,11.44,0,0,1,1.75-.29l.91-.08a7.54,7.54,0,0,0,3-.93l3.09-1.73a5.57,5.57,0,0,0,1.57-1.31l2.13-2.58h-2.06A39.41,39.41,0,0,0,84.9,89.09c-8.27,4.79-10,7.37-14.22,12.64C70.43,102,71,102.06,71,102.06Z"/><path class="cls-25" d="M62.46,123.26a1.42,1.42,0,0,1,1.68.93c.57,1.27.89.57.57,7s5.46,7.28,6.06,7.79c0,0,3.54,2.7,1.94,7.89,0,0-1.43,1.14-1.14,4.89l0,1.39s-3.36-3.76-6.92-12.57c-1.94-4.81-2.23-16.29-2.23-16.29Z"/><path class="cls-25" d="M91.76,169.07s12.4-3.46,17.8,1.59C109.56,170.66,102.11,172.07,91.76,169.07Z"/><path class="cls-25" d="M120.62,85.7s9.15,4.63,13.77,9.13,4.68,4.37,8.86,10.82a37.79,37.79,0,0,1,3.12,6.89,14.62,14.62,0,0,1,0,8s0,.63-1-.59-5-5.78-7.09-5.91-4.29.1-4.24.72-.91-.08,1.54,3.71-3.83,4.35-3.83,4.35-.43.51-5.37-1.65c0,0-2.24-.55-.84,2.24s1.65,4.52,7.6,8.69c0,0,.59,0-1.39,2.24a28.21,28.21,0,0,0-5.19,8.52s0,5.71-2.53,9a54,54,0,0,1-6.5,6.76,3,3,0,0,1-4.58-.75c-2-3-3.48-4.27-3.15-7.75s.6-4.72-.76-8.67-1.53-6.31-3.47-6.38-9,.79-10.21-.91-5.73-2.25-6.09-9.42S97,113.58,97,113.58s1.35-1.53,7.59-.85,6.74,3.84,13.14,3.39c6.75-.48,6.67-4.81.36-6.76-5.14-1.58-13.5-.33-16.43.18a3.6,3.6,0,0,1-2.78-.59c-.88-.66-1.32-1.74,1.06-3.3,4.32-2.84,9.14-4.4,8.87-9,0,0-.65-.89,2.22-1.27s11.06-1.62,7.07-5C118.13,90.34,119,84.86,120.62,85.7Z"/><path class="cls-23" d="M129.7,104.74s29.68-9.28,25-35.81"/><circle class="cls-13" cx="79.45" cy="191.53" r="7.14" transform="translate(-127.65 181.36) rotate(-64.66)"/><circle class="cls-24" cx="76.86" cy="193.22" r="7.14" transform="translate(-130.67 179.99) rotate(-64.66)"/><path class="cls-11" d="M160.59,245.94a4.74,4.74,0,0,0-4.74-4.74H123.69q-.88,1-1.72,2h33.88a2.74,2.74,0,0,1,0,5.47H118c-.41.66-.81,1.33-1.19,2h39A4.74,4.74,0,0,0,160.59,245.94Z"/><path class="cls-11" d="M198.59,258.21a2.89,2.89,0,0,0-2.88-2.88H114.47c-.3.66-.57,1.33-.84,2H195.7a.88.88,0,0,1,0,1.76H113c-.24.66-.47,1.33-.68,2H195.7A2.89,2.89,0,0,0,198.59,258.21Z"/><path class="cls-11" d="M192.59,273.45a4.86,4.86,0,0,0-4.86-4.86H128.25a4.86,4.86,0,0,0,0,9.71h59.48A4.86,4.86,0,0,0,192.59,273.45Zm-67.19,0a2.86,2.86,0,0,1,2.86-2.86h59.48a2.86,2.86,0,1,1,0,5.71H128.25A2.86,2.86,0,0,1,125.4,273.45Z"/><path class="cls-11" d="M152.84,287.59a1.75,1.75,0,0,1,0-3.5h64.3c.08-.66.15-1.33.21-2H152.84a3.75,3.75,0,0,0,0,7.5h63.31c.16-.66.29-1.33.42-2Z"/><path class="cls-11" d="M178.59,312.59a5.51,5.51,0,0,0-5.5-5.5H118.77q.68,1,1.39,2h52.93a3.5,3.5,0,0,1,0,7h-46.8q1.07,1,2.19,2h44.61A5.51,5.51,0,0,0,178.59,312.59Z"/><path class="cls-11" d="M157.12,323.81a4.81,4.81,0,0,0-4.8,4.8,4.74,4.74,0,0,0,.24,1.42q1.24.26,2.51.47a2.79,2.79,0,0,1,2.06-4.69h30c1.22-.59,2.42-1.22,3.58-1.89a4.79,4.79,0,0,0-1-.11Z"/><circle class="cls-26" cx="160.59" cy="280.54" r="53.89" transform="translate(-35.31 23.41) rotate(-7.51)"/></g></g></svg>